<svg width="466" height="119" viewBox="0 0 466 119" fill="none" xmlns="http://www.w3.org/2000/svg">
<g clip-path="url(#clip0_6010_147)">
<path d="M205.41 22.01V29.2H182.77V61.84H175.71V29.21H153.28V22.02H205.41V22.01Z" fill="white"/>
<path d="M248.3 41.32L267.09 22.01H276.48L251.39 48.57H251.17V61.85H244.11V48.57H243.89L218.42 22.01H227.92L246.98 41.32H248.3Z" fill="white"/>
<path d="M341.64 22.01V29.2H319V61.84H311.94V29.21H289.51V22.02H341.64V22.01Z" fill="white"/>
<path d="M402.02 61.85H393.87L388.28 53.44H356.19L350.6 61.85H342.46L367.71 22.02H376.72L402.02 61.85ZM371.78 29.21L360.38 46.25H384.16L372.65 29.21H371.78Z" fill="white"/>
<path d="M457.52 53.38V22.01H464.58V61.84H455.73L421.14 30.47V61.84H414.08V22.01H422.99L457.52 53.38Z" fill="white"/>
<path d="M175.33 81.6799H184.28V83.5699H180.85V92.4099H178.77V83.5699H175.33V81.6799Z" fill="white"/>
<path d="M208.49 83.5699H203.18V86.0899H208.38V87.9799H203.18V90.5199H208.49V92.4099H201.1V81.6799H208.49V83.5699Z" fill="white"/>
<path d="M230.66 81.47C231.78 81.47 232.75 81.75 233.57 82.32C234.39 82.89 235.02 83.66 235.45 84.66H233.23C232.58 83.8 231.73 83.37 230.66 83.37C229.7 83.37 228.9 83.72 228.26 84.42C227.62 85.12 227.3 86 227.3 87.05C227.3 88.11 227.62 88.98 228.26 89.68C228.9 90.38 229.7 90.73 230.66 90.73C231.74 90.73 232.6 90.3 233.23 89.44H235.45C235.02 90.43 234.39 91.21 233.57 91.77C232.75 92.34 231.78 92.62 230.66 92.62C229.11 92.62 227.81 92.09 226.77 91.03C225.73 89.97 225.22 88.64 225.22 87.05C225.22 85.46 225.74 84.13 226.77 83.07C227.81 82 229.11 81.47 230.66 81.47Z" fill="white"/>
<path d="M261.74 92.4099H259.66V87.9799H254.55V92.4099H252.47V81.6799H254.55V86.0899H259.66V81.6799H261.74V92.4099Z" fill="white"/>
<path d="M286.9 81.6799H288.98V92.4099H286.73L281.5 84.8799V92.4099H279.41V81.6799H281.66L286.9 89.2099V81.6799Z" fill="white"/>
<path d="M315.48 91C314.45 92.08 313.14 92.62 311.55 92.62C309.96 92.62 308.64 92.08 307.62 91C306.59 89.92 306.08 88.6 306.08 87.04C306.08 85.47 306.59 84.14 307.62 83.07C308.65 82 309.96 81.46 311.55 81.46C313.14 81.46 314.46 82 315.48 83.07C316.51 84.14 317.02 85.46 317.02 87.04C317.02 88.6 316.51 89.92 315.48 91ZM309.12 89.65C309.76 90.37 310.57 90.73 311.55 90.73C312.53 90.73 313.33 90.37 313.98 89.65C314.63 88.93 314.95 88.06 314.95 87.04C314.95 86.01 314.63 85.13 313.98 84.42C313.34 83.71 312.53 83.35 311.55 83.35C310.57 83.35 309.77 83.71 309.12 84.42C308.47 85.13 308.15 86 308.15 87.04C308.15 88.06 308.48 88.93 309.12 89.65Z" fill="white"/>
<path d="M336.2 81.6799V90.5199H341.51V92.4099H334.12V81.6799H336.2Z" fill="white"/>
<path d="M366.5 91C365.47 92.08 364.16 92.62 362.57 92.62C360.98 92.62 359.66 92.08 358.64 91C357.61 89.92 357.1 88.6 357.1 87.04C357.1 85.47 357.61 84.14 358.64 83.07C359.67 82 360.98 81.46 362.57 81.46C364.16 81.46 365.48 82 366.5 83.07C367.53 84.14 368.04 85.46 368.04 87.04C368.04 88.6 367.52 89.92 366.5 91ZM360.14 89.65C360.78 90.37 361.59 90.73 362.57 90.73C363.55 90.73 364.35 90.37 365 89.65C365.65 88.93 365.97 88.06 365.97 87.04C365.97 86.01 365.65 85.13 365 84.42C364.36 83.71 363.55 83.35 362.57 83.35C361.59 83.35 360.79 83.71 360.14 84.42C359.49 85.13 359.17 86 359.17 87.04C359.17 88.06 359.49 88.93 360.14 89.65Z" fill="white"/>
<path d="M390.01 92.62C388.46 92.62 387.16 92.09 386.12 91.03C385.08 89.97 384.57 88.64 384.57 87.05C384.57 85.46 385.09 84.13 386.12 83.07C387.16 82.01 388.45 81.48 390.01 81.48C391.13 81.48 392.1 81.76 392.93 82.33C393.75 82.9 394.38 83.67 394.8 84.67H392.58C391.95 83.81 391.09 83.38 390.01 83.38C389.05 83.38 388.25 83.73 387.61 84.43C386.97 85.13 386.65 86.01 386.65 87.06C386.65 88.12 386.97 88.99 387.61 89.69C388.25 90.39 389.05 90.74 390.01 90.74C390.75 90.74 391.36 90.54 391.85 90.14C392.34 89.74 392.68 89.19 392.87 88.49H389.44V86.6H395.1C395.1 88.42 394.62 89.88 393.67 90.98C392.72 92.08 391.5 92.62 390.01 92.62Z" fill="white"/>
<path d="M414.28 81.6799V92.4099H412.2V81.6799H414.28Z" fill="white"/>
<path d="M439.34 83.5699H434.03V86.0899H439.23V87.9799H434.03V90.5199H439.34V92.4099H431.95V81.6799H439.34V83.5699Z" fill="white"/>
<path d="M460.65 92.62C458.12 92.62 456.53 91.56 455.88 89.44H457.99C458.45 90.3 459.34 90.73 460.66 90.73C461.33 90.73 461.86 90.6 462.27 90.35C462.68 90.1 462.88 89.76 462.88 89.34C462.88 88.95 462.74 88.66 462.46 88.45C462.18 88.25 461.73 88.11 461.1 88.05L459.29 87.87C458.23 87.77 457.45 87.45 456.94 86.91C456.43 86.37 456.18 85.67 456.18 84.83C456.18 83.83 456.56 83.02 457.32 82.4C458.08 81.78 459.1 81.47 460.37 81.47C461.6 81.47 462.61 81.78 463.4 82.39C464.19 83 464.73 83.76 465.02 84.65H462.91C462.73 84.26 462.4 83.95 461.93 83.71C461.45 83.47 460.93 83.35 460.34 83.35C459.67 83.35 459.16 83.49 458.8 83.75C458.44 84.02 458.26 84.35 458.26 84.75C458.26 85.45 458.76 85.86 459.77 85.98L461.71 86.17C462.73 86.28 463.52 86.61 464.1 87.16C464.68 87.71 464.96 88.41 464.96 89.25C464.96 90.19 464.58 90.98 463.83 91.63C463.05 92.29 462 92.62 460.65 92.62Z" fill="white"/>
<path d="M117.26 8.50999C96.42 -0.100007 59.09 -9.50323e-06 59.09 -9.50323e-06H58.67C58.67 -9.50323e-06 21.34 -0.100007 0.49999 8.50999C0.13999 8.65999 -0.0700061 9.04999 0.0199939 9.42999C1.38999 15.57 13.31 63.45 56.26 115.79L58.5 118.46C58.7 118.69 59.05 118.69 59.25 118.46L62.77 114.22C104.68 62.5 116.37 15.51 117.73 9.43999C117.82 9.04999 117.62 8.65999 117.26 8.50999ZM48.46 82.75C48.46 82.9 48.27 82.96 48.19 82.83C32.84 59.72 21.74 32.74 20.36 29.31C20.28 29.11 20.38 28.88 20.58 28.81C29.36 25.69 45.46 25.79 48.1 25.83C48.31 25.83 48.47 26 48.47 26.21V82.75H48.46ZM97.41 29.32C96.03 32.75 84.93 59.73 69.58 82.84C69.5 82.96 69.31 82.9 69.31 82.76V26.22C69.31 26.01 69.47 25.84 69.68 25.84C72.31 25.8 88.42 25.7 97.2 28.82C97.4 28.89 97.5 29.11 97.41 29.32Z" fill="white"/>
</g>
<defs>
<clipPath id="clip0_6010_147">
<rect width="465.02" height="118.63" fill="white"/>
</clipPath>
</defs>
</svg>
