<?xml version="1.0" encoding="utf-8"?>
<!-- Generator: Adobe Illustrator 27.5.0, SVG Export Plug-In . SVG Version: 6.00 Build 0)  -->
<svg version="1.1" id="Layer_2" xmlns="http://www.w3.org/2000/svg" xmlns:xlink="http://www.w3.org/1999/xlink" x="0px" y="0px"
	 viewBox="0 0 251.78 247.68" style="enable-background:new 0 0 251.78 247.68;" xml:space="preserve">
<style type="text/css">
	.st0{fill:#DFE229;}
	.st1{fill:#FFFFFF;}
</style>
<g>
	<g>
		<g>
			<path class="st0" d="M186.85,67.48c-20.84-8.61-58.17-8.51-58.17-8.51h-0.42c0,0-37.33-0.1-58.17,8.51
				c-0.36,0.15-0.57,0.54-0.48,0.92c1.37,6.14,13.29,54.02,56.24,106.36l2.24,2.67c0.2,0.23,0.55,0.23,0.75,0l3.52-4.24
				c41.91-51.72,53.6-98.71,54.96-104.78C187.41,68.02,187.21,67.63,186.85,67.48z M118.05,141.72c0,0.15-0.19,0.21-0.27,0.08
				c-15.35-23.11-26.45-50.09-27.83-53.52c-0.08-0.2,0.02-0.43,0.22-0.5c8.78-3.12,24.88-3.02,27.52-2.98
				c0.21,0,0.37,0.17,0.37,0.38V141.72z M167,88.29c-1.38,3.43-12.48,30.41-27.83,53.52c-0.08,0.12-0.27,0.06-0.27-0.08V85.19
				c0-0.21,0.16-0.38,0.37-0.38c2.63-0.04,18.74-0.14,27.52,2.98C166.99,87.86,167.09,88.08,167,88.29z"/>
		</g>
	</g>
</g>
</svg>
